{"glyphs":{"\u0000":{"ha":1389,"x_min":0,"x_max":1356,"o":"m 0 0 l 1356 0 l 1356 1389 l 0 1389 l 0 0 z "},"\r":{"ha":1389,"x_min":0,"x_max":0,"o":""},"a":{"ha":1389,"x_min":0,"x_max":1356,"o":"m 0 87 q 16 48 0 64 q 54 33 31 33 l 1302 33 q 1329 40 1317 33 q 1349 60 1341 47 q 1356 87 1356 72 l 1356 602 l 1356 1036 q 1352 1057 1356 1046 q 1340 1076 1347 1069 l 1042 1374 q 1024 1384 1035 1379 q 1004 1389 1013 1389 l 54 1389 q 54 1389 54 1389 q 52 1389 53 1389 q 49 1389 50 1389 q 14 1371 28 1388 q 0 1335 0 1355 l 0 87 m 109 141 l 109 1280 l 217 1280 l 217 928 q 228 887 217 906 q 258 857 239 868 q 298 846 277 846 l 841 846 q 882 857 863 846 q 911 887 901 868 q 922 928 922 906 l 922 1280 l 982 1280 l 1248 1015 l 1248 602 l 1248 141 l 1139 141 l 1139 548 q 1124 587 1139 571 q 1085 602 1108 602 l 271 602 l 269 602 q 266 602 267 602 q 231 585 245 601 q 217 548 217 568 l 217 141 l 109 141 m 326 141 l 326 494 l 1031 494 l 1031 141 l 326 141 m 651 982 l 651 1253 q 659 1272 651 1264 q 678 1280 667 1280 l 787 1280 q 806 1272 798 1280 q 814 1253 814 1264 l 814 982 q 810 968 814 975 q 800 958 807 962 q 787 955 793 955 l 678 955 q 665 958 671 955 q 654 968 658 962 q 651 982 651 975 z "},"b":{"ha":1389,"x_min":54,"x_max":1268,"o":"m 54 87 l 408 266 l 233 441 l 54 87 m 320 529 l 496 353 l 1116 974 l 941 1149 l 320 529 m 1029 1240 l 1207 1062 l 1249 1107 q 1268 1151 1268 1126 q 1249 1195 1268 1176 l 1162 1282 q 1148 1293 1156 1289 q 1133 1299 1141 1297 q 1116 1301 1124 1301 q 1074 1282 1093 1301 l 1029 1240 z "},"c":{"ha":1389,"x_min":24,"x_max":1340,"o":"m 28 1026 q 65 935 35 979 q 231 795 121 849 q 412 750 324 750 q 442 751 427 750 q 529 776 490 755 q 557 766 544 770 q 583 756 570 761 q 606 747 595 751 q 624 741 617 743 q 625 735 624 739 q 625 730 625 731 q 625 720 625 727 q 625 709 625 713 q 625 708 625 709 q 625 701 625 705 q 625 693 625 697 q 625 686 625 689 q 625 682 625 686 q 624 677 624 678 q 601 667 614 673 q 563 654 587 662 q 528 642 538 646 q 442 665 490 661 q 410 667 426 667 q 338 659 375 667 q 231 621 285 647 q 65 483 121 568 q 24 364 24 421 q 41 294 24 328 q 106 227 62 251 q 203 197 149 202 q 235 195 219 195 q 415 240 323 195 q 581 380 524 293 q 621 496 621 440 q 609 555 621 526 q 642 585 628 572 q 666 608 656 598 q 1226 278 977 407 q 1263 275 1244 269 q 1296 292 1282 282 q 1321 315 1310 302 q 1339 364 1337 335 q 1339 370 1339 367 q 1322 416 1339 395 q 955 708 1165 552 q 1145 853 1054 780 q 1322 1000 1236 926 q 1337 1025 1332 1010 q 1340 1046 1340 1036 q 1340 1053 1340 1049 q 1333 1079 1339 1066 q 1321 1101 1328 1092 q 1248 1144 1284 1144 l 1240 1143 q 1226 1139 1234 1143 q 666 810 977 1010 q 650 825 659 815 q 631 842 640 834 q 609 861 621 850 q 620 916 620 888 q 620 922 620 920 q 609 982 618 954 q 581 1038 600 1010 q 415 1177 524 1124 q 235 1222 323 1222 q 229 1222 232 1222 q 203 1219 227 1222 q 106 1191 149 1215 q 41 1122 62 1166 q 26 1051 26 1086 q 28 1026 26 1039 m 158 1041 q 157 1053 157 1048 q 160 1065 157 1061 q 163 1069 161 1066 q 168 1074 165 1072 q 174 1079 171 1077 q 182 1083 178 1081 q 192 1086 187 1085 q 203 1089 197 1088 q 218 1092 210 1090 q 235 1093 227 1093 q 359 1061 294 1093 q 471 971 435 1025 q 489 923 489 943 q 486 907 489 914 q 467 890 480 898 q 427 880 453 882 q 407 880 417 879 q 286 910 351 880 q 175 1002 212 947 q 158 1041 161 1024 m 160 351 q 157 367 157 359 q 175 415 157 387 q 286 506 212 469 q 397 537 342 533 q 427 537 414 538 q 467 527 453 534 q 486 510 480 519 q 488 499 487 505 q 488 486 488 494 q 483 467 487 477 q 471 446 479 457 q 359 355 435 392 q 239 325 296 324 q 218 326 229 325 q 160 351 171 330 m 742 684 q 735 690 742 684 q 728 716 728 697 q 742 749 728 735 q 774 762 755 762 q 807 749 793 762 q 821 716 821 735 q 814 693 821 704 q 798 676 808 682 q 774 670 787 670 q 742 684 755 670 z "},"d":{"ha":1389,"x_min":54,"x_max":1302,"o":"m 54 453 q 75 406 54 426 q 122 385 95 385 l 555 385 l 555 155 q 564 121 555 137 q 589 96 574 106 q 623 87 605 87 l 1234 87 q 1282 107 1261 87 q 1302 155 1302 127 l 1302 968 q 1282 1016 1302 996 q 1234 1036 1261 1036 l 921 1036 q 899 1031 910 1036 q 891 1025 892 1027 q 876 1013 887 1023 q 837 977 864 1002 q 819 960 831 972 q 802 943 806 947 l 802 1267 q 781 1314 802 1294 q 734 1335 761 1335 l 420 1335 q 399 1329 408 1335 q 391 1324 392 1325 q 376 1312 387 1321 q 336 1275 363 1301 q 222 1166 279 1222 q 114 1054 167 1111 q 77 1013 87 1025 q 65 998 68 1004 q 60 991 62 994 q 54 968 54 981 l 54 453 m 136 467 l 136 914 l 420 914 l 475 914 l 475 1253 l 720 1253 l 720 863 q 616 755 666 810 q 578 715 589 727 q 567 700 570 705 q 562 693 563 696 q 555 670 555 682 l 555 467 l 136 467 m 171 996 l 172 997 l 172 998 q 281 1108 213 1040 q 391 1215 349 1176 q 392 1217 391 1215 l 393 1218 l 393 996 l 171 996 m 636 168 l 636 616 l 921 616 l 975 616 l 975 955 l 1221 955 l 1221 168 l 636 168 m 671 697 q 672 698 671 697 q 674 700 673 699 q 781 810 713 742 q 891 917 849 878 q 892 918 891 917 l 894 920 l 894 697 l 671 697 z "},"e":{"ha":1389,"x_min":54,"x_max":1302,"o":"m 54 358 q 78 300 54 324 q 136 277 102 277 l 555 277 l 555 155 q 564 121 555 137 q 589 96 574 106 q 623 87 605 87 l 1234 87 q 1282 107 1261 87 q 1302 155 1302 127 l 1302 968 q 1282 1016 1302 996 q 1234 1036 1261 1036 l 977 1036 l 977 1253 q 953 1311 977 1287 q 895 1335 929 1335 l 136 1335 q 78 1311 102 1335 q 54 1253 54 1287 l 54 358 m 244 1199 l 244 1226 q 252 1245 244 1237 q 271 1253 260 1253 l 760 1253 q 779 1245 770 1253 q 787 1226 787 1237 l 787 1199 q 779 1180 787 1188 q 760 1172 770 1172 l 271 1172 q 252 1180 260 1172 q 244 1199 244 1188 m 636 168 l 636 616 l 921 616 l 975 616 l 975 955 l 1221 955 l 1221 168 l 636 168 m 671 697 q 672 698 671 697 q 674 700 673 699 q 781 810 713 742 q 891 917 849 878 q 892 918 891 917 l 894 920 l 894 697 l 671 697 z "},"f":{"ha":1389,"x_min":190,"x_max":1166,"o":"m 190 1029 q 193 1016 190 1023 q 203 1006 197 1009 q 217 1002 210 1002 l 271 1002 l 271 307 q 304 223 271 258 q 385 189 338 189 l 971 189 q 1052 223 1019 189 q 1085 307 1085 258 l 1085 1002 l 1139 1002 q 1158 1010 1150 1002 q 1166 1029 1166 1019 l 1166 1057 q 1163 1070 1166 1063 q 1153 1080 1160 1077 q 1139 1084 1146 1084 l 952 1084 q 951 1085 952 1085 l 815 1221 q 802 1230 811 1226 q 787 1233 793 1233 l 570 1233 q 567 1233 568 1233 q 566 1233 567 1233 q 541 1221 551 1232 l 406 1085 q 404 1084 404 1085 l 217 1084 q 203 1080 210 1084 q 193 1070 197 1077 q 190 1057 190 1063 l 190 1029 m 353 307 l 353 1002 l 1004 1002 l 1004 307 q 994 280 1004 290 q 971 270 985 270 l 385 270 q 372 273 378 270 q 362 280 366 275 q 355 292 358 285 q 353 307 353 298 m 434 419 q 446 391 434 403 q 475 378 458 378 l 502 378 q 530 391 518 378 q 543 419 543 403 l 543 853 q 530 882 543 869 q 502 894 518 894 l 475 894 q 446 882 458 894 q 434 853 434 869 l 434 419 m 518 1084 l 586 1152 l 770 1152 l 838 1084 l 518 1084 m 624 419 q 636 391 624 403 q 665 378 648 378 l 692 378 q 720 391 708 378 q 732 419 732 403 l 732 853 q 720 882 732 869 q 692 894 708 894 l 665 894 q 636 882 648 894 q 624 853 624 869 l 624 419 m 814 419 q 826 391 814 403 q 854 378 838 378 l 882 378 q 910 391 898 378 q 922 419 922 403 l 922 853 q 910 882 922 869 q 882 894 898 894 l 854 894 q 826 882 838 894 q 814 853 814 869 l 814 419 z "},"g":{"ha":1389,"x_min":163,"x_max":1194,"o":"m 163 806 q 175 777 163 789 q 203 765 187 765 l 503 765 q 540 789 530 765 q 544 807 544 799 q 532 834 544 822 l 434 932 q 590 1035 496 1005 q 691 1051 640 1051 q 780 1039 735 1051 q 987 881 917 1002 q 1033 715 1033 802 q 1020 623 1033 670 q 862 416 983 487 q 696 370 782 370 q 605 382 651 370 q 453 471 518 406 l 336 357 q 563 227 433 260 q 693 209 628 209 q 823 227 758 209 q 1047 356 952 262 q 1177 582 1142 450 q 1194 717 1194 650 q 1193 741 1194 728 q 1160 892 1190 819 q 1083 1025 1130 966 q 968 1130 1036 1085 q 822 1196 901 1175 q 692 1213 758 1213 q 673 1213 682 1213 q 479 1165 571 1208 q 320 1047 388 1122 l 232 1135 q 199 1146 218 1149 q 174 1133 184 1145 q 163 1105 163 1120 l 163 806 z "},"h":{"ha":1389,"x_min":161,"x_max":1194,"o":"m 179 581 q 161 712 161 646 q 179 842 161 777 q 309 1066 214 971 q 534 1196 403 1161 q 559 1202 547 1199 q 585 1206 572 1204 q 610 1210 597 1208 q 635 1212 623 1211 q 659 1213 647 1213 q 684 1213 671 1213 q 877 1165 785 1208 q 1036 1047 968 1122 l 1124 1135 q 1157 1146 1138 1149 q 1183 1133 1172 1145 q 1194 1105 1194 1120 l 1194 806 q 1181 777 1194 789 q 1153 765 1169 765 l 853 765 q 817 789 826 765 q 812 807 812 799 q 825 834 812 822 l 922 932 q 766 1035 860 1005 q 665 1051 716 1051 q 576 1039 621 1051 q 370 881 439 1002 q 323 715 323 802 q 336 623 323 670 q 494 416 373 487 q 661 370 574 370 q 751 382 705 370 q 903 471 838 406 l 1020 357 q 793 227 924 260 q 663 209 728 209 q 534 227 598 209 q 309 356 404 262 q 179 581 214 450 z "},"i":{"ha":1389,"x_min":54,"x_max":1275,"o":"m 54 911 q 81 846 54 873 q 146 819 109 819 l 271 819 l 244 901 l 146 901 q 136 911 136 901 l 136 1090 l 136 1217 q 146 1226 136 1226 l 217 1226 l 450 1226 q 461 1217 461 1226 l 461 1088 l 543 1063 l 543 1217 q 515 1280 543 1253 q 450 1308 488 1308 l 146 1308 q 81 1280 109 1308 q 54 1217 54 1253 l 54 911 m 279 1032 l 351 791 q 367 778 354 780 q 387 784 380 776 l 433 848 l 538 742 q 567 730 551 730 q 594 741 583 730 l 598 746 q 609 773 609 757 q 597 800 609 789 l 491 906 l 553 951 q 559 970 562 958 q 547 986 557 983 l 305 1058 q 300 1058 302 1058 l 296 1058 q 281 1048 286 1057 q 279 1038 279 1043 q 279 1032 279 1035 m 721 631 q 720 623 720 627 q 722 611 720 616 q 732 594 724 601 l 838 488 l 776 444 q 770 424 768 437 q 783 408 772 411 l 1024 336 q 1027 336 1025 336 q 1029 336 1028 336 l 1034 336 q 1048 346 1043 338 q 1050 362 1053 354 l 978 604 q 962 616 975 614 q 943 610 949 618 l 897 547 l 791 652 q 762 665 779 665 q 759 665 761 665 q 735 654 745 665 l 731 648 q 721 631 723 642 m 787 179 q 814 114 787 141 q 879 87 841 87 l 1183 87 q 1248 114 1221 87 q 1275 179 1275 141 l 1275 483 q 1263 529 1275 507 q 1230 563 1251 551 q 1183 575 1208 575 l 1058 575 l 1085 494 l 1183 494 q 1194 483 1194 494 l 1194 304 l 1194 179 q 1183 168 1194 168 l 1112 168 l 879 168 q 868 179 868 168 l 868 307 l 787 331 l 787 179 z "},"j":{"ha":1389,"x_min":81,"x_max":1275,"o":"m 81 208 q 109 142 81 170 q 175 114 137 114 l 1181 114 q 1229 127 1207 114 q 1263 161 1251 140 q 1275 208 1275 183 l 1275 1214 q 1248 1280 1275 1253 q 1181 1308 1221 1308 l 175 1308 q 109 1280 136 1308 q 81 1214 81 1253 l 81 208 m 163 208 l 163 1214 q 175 1226 163 1226 l 1181 1226 q 1194 1214 1194 1226 l 1194 208 q 1181 195 1194 195 l 175 195 q 163 208 163 195 m 218 1137 l 313 811 q 335 793 317 796 q 362 803 353 791 l 423 888 l 533 779 q 557 764 544 768 q 585 764 571 761 q 609 777 598 766 l 614 783 q 629 819 629 798 q 613 857 629 841 l 503 967 l 586 1027 q 595 1054 598 1036 q 578 1076 593 1072 l 252 1171 q 245 1173 247 1173 q 239 1172 243 1173 q 220 1158 227 1169 q 217 1145 217 1152 q 218 1137 217 1141 m 745 563 l 854 453 l 772 393 q 762 368 760 385 q 779 346 765 350 l 1105 250 q 1114 248 1110 248 l 1119 248 q 1137 262 1130 251 q 1141 275 1141 269 q 1139 283 1141 279 l 1043 609 q 1021 627 1039 624 q 996 617 1004 629 l 935 532 l 823 642 q 786 659 808 658 q 784 659 785 659 q 749 644 763 659 l 742 637 q 728 603 728 623 q 745 563 728 580 z "},"k":{"ha":1389,"x_min":81,"x_max":1275,"o":"m 81 779 q 149 528 81 643 q 331 345 216 412 q 582 278 446 278 q 867 368 738 278 q 871 363 869 365 l 1012 222 l 1088 146 q 1124 123 1101 133 q 1166 114 1147 114 q 1243 146 1211 114 q 1275 222 1275 178 q 1265 264 1275 241 q 1242 300 1256 286 l 1165 376 l 1025 517 q 1015 526 1020 522 q 1084 779 1084 643 q 1044 973 1084 880 q 937 1133 1004 1066 q 777 1240 869 1200 q 582 1279 684 1279 q 388 1240 480 1279 q 229 1133 296 1200 q 121 973 161 1066 q 81 779 81 880 m 342 538 q 292 588 342 538 q 243 779 243 637 q 342 1019 243 920 q 582 1119 441 1119 q 753 1074 675 1119 q 877 949 831 1028 q 922 779 922 871 q 823 538 922 637 q 582 438 723 438 q 342 538 441 438 m 351 738 q 359 719 351 727 q 378 711 368 711 l 514 711 l 514 575 q 522 556 514 564 q 541 548 530 548 l 623 548 q 642 556 635 548 q 650 575 650 564 l 650 711 l 785 711 q 805 719 798 711 q 812 738 812 727 l 812 819 q 805 838 812 830 q 785 846 798 846 l 650 846 l 650 982 q 642 1001 650 993 q 623 1009 635 1009 l 541 1009 q 522 1001 530 1009 q 514 982 514 993 l 514 846 l 378 846 q 359 838 368 846 q 351 819 351 830 l 351 738 z "},"l":{"ha":1389,"x_min":81,"x_max":1275,"o":"m 81 779 q 149 528 81 643 q 331 345 216 412 q 582 278 446 278 q 867 368 738 278 q 871 363 869 365 l 1012 222 l 1088 146 q 1165 114 1120 114 q 1242 145 1210 114 q 1266 180 1257 160 q 1275 222 1275 201 q 1242 300 1275 267 l 1165 376 l 1025 517 q 1015 526 1020 522 q 1084 779 1084 643 q 1044 973 1084 880 q 937 1133 1004 1066 q 777 1240 869 1200 q 582 1279 684 1279 q 388 1240 480 1279 q 229 1133 296 1200 q 121 973 161 1066 q 81 779 81 880 m 342 538 q 292 588 342 538 q 243 779 243 637 q 342 1019 243 920 q 582 1119 441 1119 q 753 1074 675 1119 q 877 949 831 1028 q 922 779 922 871 q 823 538 922 637 q 582 438 723 438 q 342 538 441 438 m 351 738 q 359 719 351 727 q 378 711 368 711 l 785 711 q 805 719 798 711 q 812 738 812 727 l 812 819 q 805 838 812 830 q 785 846 798 846 l 378 846 q 359 838 368 846 q 351 819 351 830 l 351 738 z "},"m":{"ha":1389,"x_min":81,"x_max":1274,"o":"m 149 1028 q 115 970 149 1028 q 81 777 81 913 q 149 526 81 642 q 331 344 216 411 q 582 277 446 277 q 867 366 738 277 q 871 362 869 363 l 1012 221 l 1088 145 q 1166 114 1119 114 q 1243 144 1213 114 q 1274 220 1274 174 q 1242 298 1274 267 l 1165 374 l 1025 515 q 1015 525 1020 519 q 1084 777 1084 642 q 1017 1028 1084 913 q 834 1211 949 1143 q 583 1278 719 1278 q 331 1211 446 1278 q 149 1028 216 1143 m 342 536 q 292 586 342 536 q 243 777 243 636 q 342 1018 243 918 q 582 1118 441 1118 q 753 1072 675 1118 q 877 948 831 1027 q 922 777 922 869 q 823 536 922 636 q 582 437 723 437 q 342 536 441 437 m 433 845 q 563 875 529 860 l 568 875 l 568 519 l 677 519 l 677 1035 l 568 1035 q 543 976 562 998 q 497 943 524 954 q 433 929 471 933 l 433 845 z "},"n":{"ha":1389,"x_min":136,"x_max":1227,"o":"m 136 346 q 188 220 136 273 q 313 168 240 168 q 437 220 385 168 q 490 346 490 273 q 486 380 490 363 q 476 413 483 397 q 460 443 469 429 q 439 469 450 457 q 412 491 427 481 l 461 766 q 463 766 461 766 q 576 813 529 766 q 625 926 624 860 l 887 1000 q 915 960 898 978 q 951 928 932 941 q 996 908 971 916 q 1046 901 1020 901 q 1170 953 1118 901 q 1222 1078 1222 1005 q 1170 1202 1222 1150 q 1046 1255 1118 1255 q 964 1235 1002 1255 q 902 1181 926 1215 q 871 1105 878 1147 l 590 1028 q 463 1092 541 1092 q 347 1044 395 1092 q 300 929 300 996 q 358 804 300 853 l 308 522 q 241 507 273 521 q 186 469 209 492 q 149 412 163 445 q 136 346 136 380 m 265 298 q 255 308 265 298 q 245 346 245 317 q 265 393 245 374 q 313 412 285 412 q 361 393 342 412 q 380 346 380 374 q 361 298 380 317 q 313 278 342 278 q 265 298 285 278 m 673 446 q 682 423 673 433 q 707 414 692 414 l 869 414 l 869 243 q 879 220 869 229 q 902 210 888 210 l 998 210 q 1015 214 1008 210 q 1027 226 1023 218 q 1032 243 1032 233 l 1032 414 l 1195 414 q 1218 423 1208 414 q 1227 446 1227 433 l 1227 543 q 1218 566 1227 556 q 1195 576 1208 576 l 1032 576 l 1032 742 q 1022 766 1032 755 q 998 776 1012 776 l 902 776 q 879 766 888 776 q 869 742 869 755 l 869 576 l 707 576 q 682 566 692 576 q 673 543 673 556 l 673 446 m 987 1044 q 982 1052 987 1044 q 978 1078 978 1059 q 987 1112 978 1096 q 1011 1136 996 1127 q 1045 1145 1027 1145 q 1079 1136 1063 1145 q 1103 1112 1095 1127 q 1112 1078 1112 1096 q 1103 1044 1112 1059 q 1079 1019 1095 1028 q 1045 1010 1063 1010 q 1011 1019 1027 1010 q 987 1044 996 1028 z "},"o":{"ha":1389,"x_min":136,"x_max":1227,"o":"m 136 346 q 188 220 136 273 q 313 168 240 168 q 437 220 385 168 q 490 346 490 273 q 486 380 490 363 q 476 413 483 397 q 460 443 469 429 q 439 469 450 457 q 412 491 427 481 l 461 766 q 463 766 461 766 q 576 813 529 766 q 625 926 624 860 l 887 1000 q 915 960 898 978 q 951 928 932 941 q 996 908 971 916 q 1046 901 1020 901 q 1170 953 1118 901 q 1222 1078 1222 1005 q 1170 1202 1222 1150 q 1046 1255 1118 1255 q 964 1235 1002 1255 q 902 1181 926 1215 q 871 1105 878 1147 l 590 1028 q 463 1092 541 1092 q 347 1044 395 1092 q 300 929 300 996 q 358 804 300 853 l 308 522 q 241 507 273 521 q 186 469 209 492 q 149 412 163 445 q 136 346 136 380 m 265 298 q 255 308 265 298 q 245 346 245 317 q 265 393 245 374 q 313 412 285 412 q 361 393 342 412 q 380 346 380 374 q 361 298 380 317 q 313 278 342 278 q 265 298 285 278 m 673 446 q 682 423 673 433 q 707 414 692 414 l 1195 414 q 1218 423 1208 414 q 1227 446 1227 433 l 1227 543 q 1218 566 1227 556 q 1195 576 1208 576 l 707 576 q 682 566 692 576 q 673 543 673 556 l 673 446 m 987 1044 q 982 1052 987 1044 q 978 1078 978 1059 q 987 1112 978 1096 q 1011 1136 996 1127 q 1045 1145 1027 1145 q 1079 1136 1063 1145 q 1103 1112 1095 1127 q 1112 1078 1112 1096 q 1103 1044 1112 1059 q 1079 1019 1095 1028 q 1045 1010 1063 1010 q 1011 1019 1027 1010 q 987 1044 996 1028 z "},"p":{"ha":1389,"x_min":136,"x_max":1221,"o":"m 136 684 q 144 665 136 673 q 163 656 152 656 l 271 656 l 271 494 q 287 455 271 471 q 326 439 302 439 l 488 439 q 527 455 511 439 q 543 494 543 471 l 543 656 l 705 656 l 705 304 q 737 227 705 259 q 814 195 769 195 l 977 195 q 1053 227 1021 195 q 1085 304 1085 259 l 1085 656 l 1194 656 q 1213 665 1204 656 q 1221 684 1221 673 l 1221 738 q 1213 757 1221 749 q 1194 765 1204 765 l 1085 765 l 1085 1118 q 1053 1194 1085 1162 q 977 1226 1021 1226 l 814 1226 q 737 1194 769 1226 q 705 1118 705 1162 l 705 765 l 543 765 l 543 928 q 527 966 543 951 q 488 982 511 982 l 326 982 q 287 966 302 982 q 271 928 271 951 l 271 765 l 163 765 q 144 757 152 765 q 136 738 136 749 l 136 684 m 814 304 l 814 1118 l 977 1118 l 977 304 l 814 304 z "},"q":{"ha":1389,"x_min":163,"x_max":1194,"o":"m 163 412 q 195 336 163 368 q 271 304 227 304 l 624 304 l 624 195 q 632 176 624 184 q 651 168 640 168 l 705 168 q 724 176 716 168 q 732 195 732 184 l 732 304 l 1085 304 q 1162 336 1130 304 q 1194 412 1194 368 l 1194 575 q 1162 652 1194 620 q 1085 684 1130 684 l 732 684 l 732 846 l 895 846 q 934 862 918 846 q 949 901 949 878 l 949 1063 q 934 1102 949 1086 q 895 1118 918 1118 l 732 1118 l 732 1226 q 724 1245 732 1237 q 705 1253 716 1253 l 651 1253 q 632 1245 640 1253 q 624 1226 624 1237 l 624 1118 l 461 1118 q 422 1102 438 1118 q 407 1063 407 1086 l 407 901 q 422 862 407 878 q 461 846 438 846 l 624 846 l 624 684 l 271 684 q 195 652 227 684 q 163 575 163 620 l 163 412 m 271 412 l 271 575 l 1085 575 l 1085 412 l 271 412 z "}," ":{"ha":694,"x_min":0,"x_max":0,"o":""}," ":{"ha":1389,"x_min":0,"x_max":0,"o":""}," ":{"ha":694,"x_min":0,"x_max":0,"o":""}," ":{"ha":1389,"x_min":0,"x_max":0,"o":""}," ":{"ha":463,"x_min":0,"x_max":0,"o":""}," ":{"ha":347,"x_min":0,"x_max":0,"o":""}," ":{"ha":231,"x_min":0,"x_max":0,"o":""}," ":{"ha":231,"x_min":0,"x_max":0,"o":""}," ":{"ha":174,"x_min":0,"x_max":0,"o":""}," ":{"ha":277,"x_min":0,"x_max":0,"o":""}," ":{"ha":77,"x_min":0,"x_max":0,"o":""}," ":{"ha":277,"x_min":0,"x_max":0,"o":""}," ":{"ha":347,"x_min":0,"x_max":0,"o":""},"◼":{"ha":678,"x_min":0,"x_max":0,"o":"m 0 0 z "}}}
